<svg xmlns="http://www.w3.org/2000/svg" width="255.3333740234375" height="59.399993896484375" style="width:255.3333740234375px;height:59.399993896484375px;font-family:Asana-Math, Asana;background:transparent;"><g><g><g><g style="transform:matrix(1,0,0,1,2,36.39996337890625);"><path d="M221 334L338 334L470 330L489 375L485 382C404 378 344 376 266 376L229 376L276 646C308 647 391 650 413 650C475 650 516 641 517 626L525 537L549 537C552 601 559 651 570 689C549 691 519 692 501 692C498 692 487 692 463 691L343 690C334 689 160 691 150 691L105 692L102 664L156 662C180 661 191 653 191 635C191 621 187 589 182 559L95 55C91 37 79 30 35 23L30 -3L71 -2C102 -1 164 0 184 0L409 -3C423 -3 448 -2 481 -1L514 0L518 36C520 56 525 86 534 135L539 161L512 161L496 101C486 65 477 53 455 48C435 44 362 39 308 39C267 39 240 40 171 46ZM634 388L641 368L673 389C710 412 713 414 720 414C731 414 738 404 738 389C738 338 697 145 656 2L663 -9C688 -2 711 4 733 8C752 134 773 199 819 268C873 352 948 414 993 414C1004 414 1010 405 1010 390C1010 372 1007 351 999 319L947 107C938 70 934 47 934 31C934 6 945 -9 964 -9C990 -9 1026 12 1124 85L1114 103L1088 86C1059 67 1037 56 1027 56C1020 56 1014 65 1014 76C1014 81 1015 92 1016 96L1082 372C1089 401 1093 429 1093 446C1093 469 1082 482 1062 482C1020 482 951 444 892 389C854 354 826 320 774 247L812 408C816 426 818 438 818 449C818 470 810 482 795 482C774 482 735 460 662 408ZM1290 390L1234 107C1233 99 1221 61 1221 31C1221 6 1232 -9 1251 -9C1286 -9 1321 11 1399 74L1430 99L1420 117L1375 86C1346 66 1326 56 1315 56C1306 56 1301 64 1301 76C1301 102 1315 183 1344 328L1357 390L1464 390L1475 440C1437 436 1403 434 1365 434C1381 528 1392 577 1410 631L1399 646C1379 634 1352 622 1321 610L1296 440C1252 419 1226 408 1208 403L1206 390ZM1865 365C1868 403 1873 435 1881 476C1870 481 1866 482 1861 482C1830 482 1799 458 1763 407C1724 351 1685 291 1669 256L1701 408C1705 425 1707 438 1707 450C1707 470 1699 482 1684 482C1663 482 1625 461 1551 408L1523 388L1530 368L1562 389C1590 407 1601 412 1610 412C1620 412 1627 403 1627 390C1627 332 1584 126 1544 -2L1554 -9C1569 -4 1585 -1 1608 4L1621 6L1647 126C1665 209 1688 262 1732 319C1766 363 1793 384 1815 384C1830 384 1840 379 1851 365ZM1902 152C1902 46 1947 -11 2030 -11C2085 -11 2145 15 2190 57C2252 116 2296 230 2296 331C2296 425 2246 482 2163 482C2059 482 1902 382 1902 152ZM2126 444C2187 444 2220 399 2220 315C2220 219 2189 113 2145 60C2127 39 2101 27 2070 27C2012 27 1978 72 1978 151C1978 264 2017 387 2066 427C2079 438 2102 444 2126 444ZM2504 -11C2560 -11 2675 62 2718 125C2759 186 2793 296 2793 371C2793 438 2770 482 2734 482C2692 482 2639 456 2587 409C2546 374 2526 348 2490 289L2514 408C2517 425 2519 440 2519 452C2519 471 2511 482 2497 482C2476 482 2438 461 2364 408L2336 388L2343 368L2375 389C2403 407 2414 412 2423 412C2433 412 2440 403 2440 389C2440 381 2438 361 2436 351L2378 8C2368 -52 2349 -143 2329 -233L2321 -270L2328 -276C2349 -269 2369 -264 2401 -259L2443 3C2464 -4 2486 -11 2504 -11ZM2471 165C2493 293 2600 424 2683 424C2709 424 2721 402 2721 356C2721 275 2681 156 2628 80C2608 51 2576 36 2535 36C2504 36 2479 43 2453 59ZM2820 -180C2819 -187 2819 -193 2819 -198C2819 -241 2856 -276 2901 -276C3007 -276 3117 -152 3176 33L3317 473L3306 482C3277 471 3254 465 3232 463L3197 331C3185 284 3150 211 3117 162C3082 111 3033 67 3011 67C2999 67 2990 90 2991 115L3007 322C3009 353 3011 391 3011 419C3011 464 3004 482 2987 482C2974 482 2960 475 2912 442L2830 386L2841 368L2891 398C2896 401 2907 410 2916 410C2930 410 2938 391 2938 358C2938 357 2938 351 2937 343L2920 100L2919 60C2919 18 2937 -11 2962 -11C2999 -11 3083 74 3158 187L3109 16C3058 -161 3008 -234 2938 -234C2903 -234 2876 -207 2876 -172C2876 -167 2877 -159 2878 -150L2868 -146Z" stroke="rgb(0, 0, 0)" stroke-width="8" fill="rgb(0, 0, 0)" style="transform:matrix(0.017,0,0,-0.017,0,0);"></path></g><text x="62.78338623046875" y="36.99579671223958" style="white-space:pre;stroke:none;fill:rgb(0, 0, 0);font-size:17px;font-family:Asana-Math, Asana;font-weight:400;dominant-baseline:auto;text-decoration:none;">（</text><g style="transform:matrix(1,0,0,1,79.78338623046875,36.39996337890625);"><path d="M125 390L69 107C68 99 56 61 56 31C56 6 67 -9 86 -9C121 -9 156 11 234 74L265 99L255 117L210 86C181 66 161 56 150 56C141 56 136 64 136 76C136 102 150 183 179 328L192 390L299 390L310 440C272 436 238 434 200 434C216 528 227 577 245 631L234 646C214 634 187 622 156 610L131 440C87 419 61 408 43 403L41 390Z" stroke="rgb(0, 0, 0)" stroke-width="8" fill="rgb(0, 0, 0)" style="transform:matrix(0.017,0,0,-0.017,0,0);"></path></g><text x="85.433349609375" y="36.99579671223958" style="white-space:pre;stroke:none;fill:rgb(0, 0, 0);font-size:17px;font-family:Asana-Math, Asana;font-weight:400;dominant-baseline:auto;text-decoration:none;">）</text></g><g style="transform:matrix(1,0,0,1,107.53338623046875,36.39996337890625);"><path d="M604 347L604 406L65 406L65 347ZM604 134L604 193L65 193L65 134Z" stroke="rgb(0, 0, 0)" stroke-width="8" fill="rgb(0, 0, 0)" style="transform:matrix(0.017,0,0,-0.017,0,0);"></path></g><g style="transform:matrix(1,0,0,1,123.98333740234375,36.39996337890625);"><path d="M555 243L555 299L51 299L51 243Z" stroke="rgb(0, 0, 0)" stroke-width="8" fill="rgb(0, 0, 0)" style="transform:matrix(0.017,0,0,-0.017,0,0);"></path></g><g><g><g><g style="transform:matrix(1,0,0,1,136.11669921875,13.9);"><path d="M342 330L365 330C373 395 380 432 389 458C365 473 330 482 293 482C248 483 175 463 118 400C64 352 25 241 25 136C25 40 67 -11 147 -11C201 -11 249 9 304 54L354 95L346 115L331 105C259 57 221 40 186 40C130 40 101 80 101 159C101 267 136 371 185 409C206 425 230 433 261 433C306 433 342 414 342 390ZM961 243L961 299L457 299L457 243ZM1429 -3L1429 27L1377 30C1322 33 1312 44 1312 96L1312 700L1071 598L1078 548L1228 614L1228 96C1228 44 1217 33 1163 30L1107 27L1107 -3C1261 0 1261 0 1272 0C1303 0 1413 -3 1429 -3Z" stroke="rgb(0, 0, 0)" stroke-width="8" fill="rgb(0, 0, 0)" style="transform:matrix(0.0119,0,0,-0.0119,0,0);"></path></g></g></g><g><g><g style="transform:matrix(1,0,0,1,136.5,54.79996337890625);"><path d="M34 388L41 368L73 389C110 412 113 414 120 414C130 414 138 404 138 391C138 384 134 361 130 347L64 107C56 76 51 49 51 30C51 6 62 -9 81 -9C107 -9 143 12 241 85L231 103L205 86C176 67 153 56 144 56C137 56 131 66 131 76C131 86 133 95 138 116L215 420C219 437 221 448 221 456C221 473 212 482 196 482C174 482 137 461 62 408ZM228 712C199 712 170 679 170 645C170 620 185 604 209 604C240 604 264 633 264 671C264 695 249 712 228 712ZM881 347L881 406L342 406L342 347ZM881 134L881 193L342 193L342 134ZM1208 689C1053 689 974 566 974 324C974 207 995 106 1030 57C1065 8 1121 -20 1183 -20C1334 -20 1410 110 1410 366C1410 585 1345 689 1208 689ZM1190 654C1287 654 1326 556 1326 316C1326 103 1288 15 1196 15C1099 15 1058 116 1058 360C1058 571 1095 654 1190 654Z" stroke="rgb(0, 0, 0)" stroke-width="8" fill="rgb(0, 0, 0)" style="transform:matrix(0.0119,0,0,-0.0119,0,0);"></path></g></g></g><g style="transform:matrix(1,0,0,1,134.26666259765625,33.8499755859375);"><path d="M788 13L772 -310L62 -310L420 133L66 620L754 620L768 346L732 346C718 428 694 486 662 522C626 559 572 578 498 578L246 578L524 194L214 -205L512 -205C592 -205 648 -190 680 -162C714 -132 734 -74 746 13Z" stroke="rgb(0, 0, 0)" stroke-width="8" fill="rgb(0, 0, 0)" style="transform:matrix(0.0255,0,0,-0.0255,0,0);"></path></g></g><g style="transform:matrix(1,0,0,1,155.933349609375,36.39996337890625);"><path d="M176 -11C232 -11 347 62 390 125C431 186 465 296 465 371C465 438 442 482 406 482C364 482 311 456 259 409C218 374 198 348 162 289L186 408C189 425 191 440 191 452C191 471 183 482 169 482C148 482 110 461 36 408L8 388L15 368L47 389C75 407 86 412 95 412C105 412 112 403 112 389C112 381 110 361 108 351L50 8C40 -52 21 -143 1 -233L-7 -270L0 -276C21 -269 41 -264 73 -259L115 3C136 -4 158 -11 176 -11ZM143 165C165 293 272 424 355 424C381 424 393 402 393 356C393 275 353 156 300 80C280 51 248 36 207 36C176 36 151 43 125 59Z" stroke="rgb(0, 0, 0)" stroke-width="8" fill="rgb(0, 0, 0)" style="transform:matrix(0.017,0,0,-0.017,0,0);"></path></g><g><svg x="164.41668701171875" style="overflow:visible;" y="6.39996337890625" height="47" width="8.5"><path d=" M 6.61 1.70 q 0.00 -0.12 -0.10 -0.12 q -0.03 0.00 -0.10 0.03 q -1.26 0.80 -2.19 1.88 t -1.72 2.71 t -1.19 4.02 t -0.41 5.48 v 0.90 h 1.68 v -0.90 q 0.00 -1.73 0.05 -3.01 t 0.28 -2.96 t 0.62 -2.94 t 1.14 -2.52 t 1.79 -2.15 q 0.15 -0.14 0.15 -0.43 z   M 0.90 16.61 v 13.78 h 1.68 v -13.78 z" style="fill:rgb(0, 0, 0);stroke-width:1px;stroke:none;"></path><path d=" M 6.61 45.30 q 0.00 0.12 -0.10 0.12 q -0.03 0.00 -0.10 -0.03 q -1.26 -0.80 -2.19 -1.88 t -1.72 -2.71 t -1.19 -4.02 t -0.41 -5.48 v -0.90 h 1.68 v 0.90 q 0.00 1.73 0.05 3.01 t 0.28 2.96 t 0.62 2.94 t 1.14 2.52 t 1.79 2.15 q 0.15 0.14 0.15 0.43 z" style="fill:rgb(0, 0, 0);stroke-width:1px;stroke:none;"></path></svg></g><g><g><g><g style="transform:matrix(1,0,0,1,173.38336181640625,23.89996337890625);"><path d="M34 388L41 368L73 389C110 412 113 414 120 414C130 414 138 404 138 391C138 384 134 361 130 347L64 107C56 76 51 49 51 30C51 6 62 -9 81 -9C107 -9 143 12 241 85L231 103L205 86C176 67 153 56 144 56C137 56 131 66 131 76C131 86 133 95 138 116L215 420C219 437 221 448 221 456C221 473 212 482 196 482C174 482 137 461 62 408ZM228 712C199 712 170 679 170 645C170 620 185 604 209 604C240 604 264 633 264 671C264 695 249 712 228 712Z" stroke="rgb(0, 0, 0)" stroke-width="8" fill="rgb(0, 0, 0)" style="transform:matrix(0.017,0,0,-0.017,0,0);"></path></g></g></g><g><g><g style="transform:matrix(1,0,0,1,172.91668701171875,49.89996337890625);"><path d="M125 390L69 107C68 99 56 61 56 31C56 6 67 -9 86 -9C121 -9 156 11 234 74L265 99L255 117L210 86C181 66 161 56 150 56C141 56 136 64 136 76C136 102 150 183 179 328L192 390L299 390L310 440C272 436 238 434 200 434C216 528 227 577 245 631L234 646C214 634 187 622 156 610L131 440C87 419 61 408 43 403L41 390Z" stroke="rgb(0, 0, 0)" stroke-width="8" fill="rgb(0, 0, 0)" style="transform:matrix(0.017,0,0,-0.017,0,0);"></path></g></g></g><line style="fill:none;stroke-width:1px;stroke:rgb(0, 0, 0);" x1="172.91668701171875" y1="32.14996337890625" x2="178.56668090820312" y2="32.14996337890625"></line></g><g><svg x="178.56671142578125" style="overflow:visible;" y="6.39996337890625" height="47" width="8.5"><path d=" M 1.19 1.70 q 0.00 -0.12 0.10 -0.12 q 0.03 0.00 0.10 0.03 q 1.26 0.80 2.19 1.88 t 1.72 2.71 t 1.19 4.02 t 0.41 5.48 v 0.90 h -1.68 v -0.90 q 0.00 -1.73 -0.05 -3.01 t -0.28 -2.96 t -0.62 -2.94 t -1.14 -2.52 t -1.79 -2.15 q -0.15 -0.14 -0.15 -0.43 z  M 6.90 16.61 v 13.78 h -1.68 v -13.78 z" style="fill:rgb(0, 0, 0);stroke-width:1px;stroke:none;"></path><path d=" M 1.19 45.30 q 0.00 0.12 0.10 0.12 q 0.03 0.00 0.10 -0.03 q 1.26 -0.80 2.19 -1.88 t 1.72 -2.71 t 1.19 -4.02 t 0.41 -5.48 v -0.90 h -1.68 v 0.90 q 0.00 1.73 -0.05 3.01 t -0.28 2.96 t -0.62 2.94 t -1.14 2.52 t -1.79 2.15 q -0.15 0.14 -0.15 0.43 z" style="fill:rgb(0, 0, 0);stroke-width:1px;stroke:none;"></path></svg></g><g style="transform:matrix(1,0,0,1,187.06671142578125,36.39996337890625);"><path d="M251 722L239 733C187 707 151 698 79 691L75 670L123 670C147 670 157 663 157 648C157 645 157 640 154 622C143 567 70 182 55 132C42 82 36 52 36 31C36 6 47 -9 66 -9C92 -9 128 12 226 85L216 103L190 86C161 67 139 56 129 56C122 56 116 66 116 76C116 82 117 89 120 104ZM294 152C294 46 339 -11 422 -11C477 -11 537 15 582 57C644 116 688 230 688 331C688 425 638 482 555 482C451 482 294 382 294 152ZM518 444C579 444 612 399 612 315C612 219 581 113 537 60C519 39 493 27 462 27C404 27 370 72 370 151C370 264 409 387 458 427C471 438 494 444 518 444ZM995 482C928 482 775 419 775 259C775 182 820 136 897 136C905 136 916 136 927 137L886 99C870 84 859 66 859 52C859 42 866 31 880 19C811 -4 683 -48 683 -159C683 -230 753 -276 862 -276C991 -276 1104 -204 1104 -121C1104 -85 1083 -49 1040 -14L980 35C946 62 933 81 933 100C933 114 948 128 960 146C1058 170 1129 253 1129 342C1129 357 1126 376 1125 380C1142 378 1150 378 1159 378C1176 378 1186 379 1209 382L1218 427L1215 433C1187 426 1167 424 1113 424C1113 425 1089 482 995 482ZM896 1L973 -58C1019 -94 1038 -121 1038 -154C1038 -206 969 -248 886 -248C804 -248 747 -206 747 -145C747 -43 857 -11 896 1ZM970 448C1028 448 1057 412 1057 341C1057 238 1009 168 939 168C878 168 846 209 846 288C846 383 897 448 970 448Z" stroke="rgb(0, 0, 0)" stroke-width="8" fill="rgb(0, 0, 0)" style="transform:matrix(0.017,0,0,-0.017,0,0);"></path></g><g><g><g><g style="transform:matrix(1,0,0,1,207.79998779296875,41.78330078125);"><path d="M16 23L16 -3C203 -3 203 0 239 0C275 0 275 -3 468 -3L468 82C353 77 307 81 122 77L304 270C401 373 431 428 431 503C431 618 353 689 226 689C154 689 105 669 56 619L39 483L68 483L81 529C97 587 133 612 200 612C286 612 341 558 341 473C341 398 299 324 186 204Z" stroke="rgb(0, 0, 0)" stroke-width="8" fill="rgb(0, 0, 0)" style="transform:matrix(0.0119,0,0,-0.0119,0,0);"></path></g></g></g></g><g style="transform:matrix(1,0,0,1,213.73333740234375,36.39996337890625);"><path d="M176 -11C232 -11 347 62 390 125C431 186 465 296 465 371C465 438 442 482 406 482C364 482 311 456 259 409C218 374 198 348 162 289L186 408C189 425 191 440 191 452C191 471 183 482 169 482C148 482 110 461 36 408L8 388L15 368L47 389C75 407 86 412 95 412C105 412 112 403 112 389C112 381 110 361 108 351L50 8C40 -52 21 -143 1 -233L-7 -270L0 -276C21 -269 41 -264 73 -259L115 3C136 -4 158 -11 176 -11ZM143 165C165 293 272 424 355 424C381 424 393 402 393 356C393 275 353 156 300 80C280 51 248 36 207 36C176 36 151 43 125 59Z" stroke="rgb(0, 0, 0)" stroke-width="8" fill="rgb(0, 0, 0)" style="transform:matrix(0.017,0,0,-0.017,0,0);"></path></g><g><svg x="222.2166748046875" style="overflow:visible;" y="6.39996337890625" height="47" width="8.5"><path d=" M 6.61 1.70 q 0.00 -0.12 -0.10 -0.12 q -0.03 0.00 -0.10 0.03 q -1.26 0.80 -2.19 1.88 t -1.72 2.71 t -1.19 4.02 t -0.41 5.48 v 0.90 h 1.68 v -0.90 q 0.00 -1.73 0.05 -3.01 t 0.28 -2.96 t 0.62 -2.94 t 1.14 -2.52 t 1.79 -2.15 q 0.15 -0.14 0.15 -0.43 z   M 0.90 16.61 v 13.78 h 1.68 v -13.78 z" style="fill:rgb(0, 0, 0);stroke-width:1px;stroke:none;"></path><path d=" M 6.61 45.30 q 0.00 0.12 -0.10 0.12 q -0.03 0.00 -0.10 -0.03 q -1.26 -0.80 -2.19 -1.88 t -1.72 -2.71 t -1.19 -4.02 t -0.41 -5.48 v -0.90 h 1.68 v 0.90 q 0.00 1.73 0.05 3.01 t 0.28 2.96 t 0.62 2.94 t 1.14 2.52 t 1.79 2.15 q 0.15 0.14 0.15 0.43 z" style="fill:rgb(0, 0, 0);stroke-width:1px;stroke:none;"></path></svg></g><g><g><g><g style="transform:matrix(1,0,0,1,231.183349609375,23.89996337890625);"><path d="M34 388L41 368L73 389C110 412 113 414 120 414C130 414 138 404 138 391C138 384 134 361 130 347L64 107C56 76 51 49 51 30C51 6 62 -9 81 -9C107 -9 143 12 241 85L231 103L205 86C176 67 153 56 144 56C137 56 131 66 131 76C131 86 133 95 138 116L215 420C219 437 221 448 221 456C221 473 212 482 196 482C174 482 137 461 62 408ZM228 712C199 712 170 679 170 645C170 620 185 604 209 604C240 604 264 633 264 671C264 695 249 712 228 712Z" stroke="rgb(0, 0, 0)" stroke-width="8" fill="rgb(0, 0, 0)" style="transform:matrix(0.017,0,0,-0.017,0,0);"></path></g></g></g><g><g><g style="transform:matrix(1,0,0,1,230.7166748046875,49.89996337890625);"><path d="M125 390L69 107C68 99 56 61 56 31C56 6 67 -9 86 -9C121 -9 156 11 234 74L265 99L255 117L210 86C181 66 161 56 150 56C141 56 136 64 136 76C136 102 150 183 179 328L192 390L299 390L310 440C272 436 238 434 200 434C216 528 227 577 245 631L234 646C214 634 187 622 156 610L131 440C87 419 61 408 43 403L41 390Z" stroke="rgb(0, 0, 0)" stroke-width="8" fill="rgb(0, 0, 0)" style="transform:matrix(0.017,0,0,-0.017,0,0);"></path></g></g></g><line style="fill:none;stroke-width:1px;stroke:rgb(0, 0, 0);" x1="230.7166748046875" y1="32.14996337890625" x2="236.36666870117188" y2="32.14996337890625"></line></g><g><svg x="236.36669921875" style="overflow:visible;" y="6.39996337890625" height="47" width="8.5"><path d=" M 1.19 1.70 q 0.00 -0.12 0.10 -0.12 q 0.03 0.00 0.10 0.03 q 1.26 0.80 2.19 1.88 t 1.72 2.71 t 1.19 4.02 t 0.41 5.48 v 0.90 h -1.68 v -0.90 q 0.00 -1.73 -0.05 -3.01 t -0.28 -2.96 t -0.62 -2.94 t -1.14 -2.52 t -1.79 -2.15 q -0.15 -0.14 -0.15 -0.43 z  M 6.90 16.61 v 13.78 h -1.68 v -13.78 z" style="fill:rgb(0, 0, 0);stroke-width:1px;stroke:none;"></path><path d=" M 1.19 45.30 q 0.00 0.12 0.10 0.12 q 0.03 0.00 0.10 -0.03 q 1.26 -0.80 2.19 -1.88 t 1.72 -2.71 t 1.19 -4.02 t 0.41 -5.48 v -0.90 h -1.68 v 0.90 q 0.00 1.73 -0.05 3.01 t -0.28 2.96 t -0.62 2.94 t -1.14 2.52 t -1.79 2.15 q -0.15 0.14 -0.15 0.43 z" style="fill:rgb(0, 0, 0);stroke-width:1px;stroke:none;"></path></svg></g><g style="transform:matrix(1,0,0,1,244.86669921875,36.39996337890625);"><path d="" stroke="rgb(0, 0, 0)" stroke-width="8" fill="rgb(0, 0, 0)" style="transform:matrix(0.017,0,0,-0.017,0,0);"></path></g></g></g></svg>