<svg xmlns="http://www.w3.org/2000/svg" width="177.44998168945312" height="64.09999084472656" style="width:177.44998168945312px;height:64.09999084472656px;font-family:Asana-Math, Asana;background:transparent;"><g><g><g style="transform:matrix(1,0,0,1,2,41.0999755859375);"><path d="M683 653C760 653 814 639 870 603L870 519L897 519C902 576 910 619 924 665C841 695 784 706 715 706C623 706 550 683 478 632C361 548 299 424 299 274C299 87 408 -18 604 -18C661 -21 808 6 857 37C877 193 881 216 882 219C884 228 896 238 909 240L941 246L943 274C904 270 869 269 818 269C767 269 731 270 689 274L684 246L718 244C793 240 802 236 802 212C802 197 782 84 777 60C732 36 693 27 639 27C473 27 387 120 387 297C387 443 446 653 683 653ZM1004 388L1011 368L1043 389C1080 412 1083 414 1090 414C1100 414 1108 404 1108 391C1108 384 1104 361 1100 347L1034 107C1026 76 1021 49 1021 30C1021 6 1032 -9 1051 -9C1077 -9 1113 12 1211 85L1201 103L1175 86C1146 67 1123 56 1114 56C1107 56 1101 66 1101 76C1101 86 1103 95 1108 116L1185 420C1189 437 1191 448 1191 456C1191 473 1182 482 1166 482C1144 482 1107 461 1032 408ZM1198 712C1169 712 1140 679 1140 645C1140 620 1155 604 1179 604C1210 604 1234 633 1234 671C1234 695 1219 712 1198 712ZM1271 388L1278 368L1310 389C1347 412 1350 414 1357 414C1368 414 1375 404 1375 389C1375 338 1334 145 1293 2L1300 -9C1325 -2 1348 4 1370 8C1389 134 1410 199 1456 268C1510 352 1585 414 1630 414C1641 414 1647 405 1647 390C1647 372 1644 351 1636 319L1584 107C1575 70 1571 47 1571 31C1571 6 1582 -9 1601 -9C1627 -9 1663 12 1761 85L1751 103L1725 86C1696 67 1674 56 1664 56C1657 56 1651 65 1651 76C1651 81 1652 92 1653 96L1719 372C1726 401 1730 429 1730 446C1730 469 1719 482 1699 482C1657 482 1588 444 1529 389C1491 354 1463 320 1411 247L1449 408C1453 426 1455 438 1455 449C1455 470 1447 482 1432 482C1411 482 1372 460 1299 408ZM1836 388L1843 368L1875 389C1912 412 1915 414 1922 414C1932 414 1940 404 1940 391C1940 384 1936 361 1932 347L1866 107C1858 76 1853 49 1853 30C1853 6 1864 -9 1883 -9C1909 -9 1945 12 2043 85L2033 103L2007 86C1978 67 1955 56 1946 56C1939 56 1933 66 1933 76C1933 86 1935 95 1940 116L2017 420C2021 437 2023 448 2023 456C2023 473 2014 482 1998 482C1976 482 1939 461 1864 408ZM2030 712C2001 712 1972 679 1972 645C1972 620 1987 604 2011 604C2042 604 2066 633 2066 671C2066 695 2051 712 2030 712Z" stroke="rgb(0, 0, 0)" stroke-width="8" fill="rgb(0, 0, 0)" style="transform:matrix(0.017,0,0,-0.017,0,0);"></path></g><g style="transform:matrix(1,0,0,1,37.35003662109375,41.0999755859375);"><path d="M146 266C146 526 243 632 301 700L282 726C225 675 60 542 60 266C60 159 85 58 133 -32C168 -99 200 -138 282 -215L301 -194C255 -137 146 -15 146 266Z" stroke="rgb(0, 0, 0)" stroke-width="8" fill="rgb(0, 0, 0)" style="transform:matrix(0.017,0,0,-0.017,0,0);"></path></g><g style="transform:matrix(1,0,0,1,43,41.0999755859375);"><path d="M125 390L69 107C68 99 56 61 56 31C56 6 67 -9 86 -9C121 -9 156 11 234 74L265 99L255 117L210 86C181 66 161 56 150 56C141 56 136 64 136 76C136 102 150 183 179 328L192 390L299 390L310 440C272 436 238 434 200 434C216 528 227 577 245 631L234 646C214 634 187 622 156 610L131 440C87 419 61 408 43 403L41 390Z" stroke="rgb(0, 0, 0)" stroke-width="8" fill="rgb(0, 0, 0)" style="transform:matrix(0.017,0,0,-0.017,0,0);"></path></g><g style="transform:matrix(1,0,0,1,48.6500244140625,41.0999755859375);"><path d="M51 726L32 700C87 636 187 526 187 266C187 -10 83 -131 32 -194L51 -215C104 -165 273 -23 273 265C273 542 108 675 51 726Z" stroke="rgb(0, 0, 0)" stroke-width="8" fill="rgb(0, 0, 0)" style="transform:matrix(0.017,0,0,-0.017,0,0);"></path></g><g style="transform:matrix(1,0,0,1,59.4000244140625,41.0999755859375);"><path d="M604 347L604 406L65 406L65 347ZM604 134L604 193L65 193L65 134Z" stroke="rgb(0, 0, 0)" stroke-width="8" fill="rgb(0, 0, 0)" style="transform:matrix(0.017,0,0,-0.017,0,0);"></path></g><g style="transform:matrix(1,0,0,1,75.85003662109375,41.0999755859375);"><path d="M418 -3L418 27L366 30C311 33 301 44 301 96L301 700L60 598L67 548L217 614L217 96C217 44 206 33 152 30L96 27L96 -3C250 0 250 0 261 0C292 0 402 -3 418 -3Z" stroke="rgb(0, 0, 0)" stroke-width="8" fill="rgb(0, 0, 0)" style="transform:matrix(0.017,0,0,-0.017,0,0);"></path></g><g style="transform:matrix(1,0,0,1,87.73333740234375,41.0999755859375);"><path d="M555 243L555 299L51 299L51 243Z" stroke="rgb(0, 0, 0)" stroke-width="8" fill="rgb(0, 0, 0)" style="transform:matrix(0.017,0,0,-0.017,0,0);"></path></g><g><g><g><g style="transform:matrix(1,0,0,1,103.26666259765625,18.60001220703125);"><path d="M342 330L365 330C373 395 380 432 389 458C365 473 330 482 293 482C248 483 175 463 118 400C64 352 25 241 25 136C25 40 67 -11 147 -11C201 -11 249 9 304 54L354 95L346 115L331 105C259 57 221 40 186 40C130 40 101 80 101 159C101 267 136 371 185 409C206 425 230 433 261 433C306 433 342 414 342 390ZM961 243L961 299L457 299L457 243ZM1429 -3L1429 27L1377 30C1322 33 1312 44 1312 96L1312 700L1071 598L1078 548L1228 614L1228 96C1228 44 1217 33 1163 30L1107 27L1107 -3C1261 0 1261 0 1272 0C1303 0 1413 -3 1429 -3Z" stroke="rgb(0, 0, 0)" stroke-width="8" fill="rgb(0, 0, 0)" style="transform:matrix(0.0119,0,0,-0.0119,0,0);"></path></g></g></g><g><g><g style="transform:matrix(1,0,0,1,103.6500244140625,59.4999755859375);"><path d="M34 388L41 368L73 389C110 412 113 414 120 414C130 414 138 404 138 391C138 384 134 361 130 347L64 107C56 76 51 49 51 30C51 6 62 -9 81 -9C107 -9 143 12 241 85L231 103L205 86C176 67 153 56 144 56C137 56 131 66 131 76C131 86 133 95 138 116L215 420C219 437 221 448 221 456C221 473 212 482 196 482C174 482 137 461 62 408ZM228 712C199 712 170 679 170 645C170 620 185 604 209 604C240 604 264 633 264 671C264 695 249 712 228 712ZM881 347L881 406L342 406L342 347ZM881 134L881 193L342 193L342 134ZM1208 689C1053 689 974 566 974 324C974 207 995 106 1030 57C1065 8 1121 -20 1183 -20C1334 -20 1410 110 1410 366C1410 585 1345 689 1208 689ZM1190 654C1287 654 1326 556 1326 316C1326 103 1288 15 1196 15C1099 15 1058 116 1058 360C1058 571 1095 654 1190 654Z" stroke="rgb(0, 0, 0)" stroke-width="8" fill="rgb(0, 0, 0)" style="transform:matrix(0.0119,0,0,-0.0119,0,0);"></path></g></g></g><g style="transform:matrix(1,0,0,1,101.41668701171875,38.54998779296875);"><path d="M788 13L772 -310L62 -310L420 133L66 620L754 620L768 346L732 346C718 428 694 486 662 522C626 559 572 578 498 578L246 578L524 194L214 -205L512 -205C592 -205 648 -190 680 -162C714 -132 734 -74 746 13Z" stroke="rgb(0, 0, 0)" stroke-width="8" fill="rgb(0, 0, 0)" style="transform:matrix(0.0255,0,0,-0.0255,0,0);"></path></g></g><g><svg x="123.08331298828125" style="overflow:visible;" y="9.0999755859375" height="51" width="7.649993896484375"><path d=" M 5.98 1.70 l -0.10 -0.10 q -1.09 0.03 -2.16 0.03 q -1.02 0.00 -2.14 -0.03 l -0.15 0.22 q 0.15 0.58 0.15 3.15 v 0.85 h 1.43 v -0.85 q 0.00 -1.31 0.07 -2.14 q 0.05 -0.60 1.19 -0.60 h 1.65 l 0.07 -0.09 v -0.44 z  M 1.58 5.63 v 39.75 h 1.43 v -39.75 z " style="fill:rgb(0, 0, 0);stroke-width:1px;stroke:none;"></path><path d=" M 5.98 49.30 l -0.10 0.10 q -1.09 -0.03 -2.16 -0.03 q -1.02 0.00 -2.14 0.03 l -0.15 -0.22 q 0.15 -0.58 0.15 -3.15 v -0.85 h 1.43 v 0.85 q 0.00 1.31 0.07 2.14 q 0.05 0.60 1.19 0.60 h 1.65 l 0.07 0.09 v 0.44 z" style="fill:rgb(0, 0, 0);stroke-width:1px;stroke:none;"></path></svg></g><g style="transform:matrix(1,0,0,1,130.73333740234375,41.0999755859375);"><path d="M176 -11C232 -11 347 62 390 125C431 186 465 296 465 371C465 438 442 482 406 482C364 482 311 456 259 409C218 374 198 348 162 289L186 408C189 425 191 440 191 452C191 471 183 482 169 482C148 482 110 461 36 408L8 388L15 368L47 389C75 407 86 412 95 412C105 412 112 403 112 389C112 381 110 361 108 351L50 8C40 -52 21 -143 1 -233L-7 -270L0 -276C21 -269 41 -264 73 -259L115 3C136 -4 158 -11 176 -11ZM143 165C165 293 272 424 355 424C381 424 393 402 393 356C393 275 353 156 300 80C280 51 248 36 207 36C176 36 151 43 125 59Z" stroke="rgb(0, 0, 0)" stroke-width="8" fill="rgb(0, 0, 0)" style="transform:matrix(0.017,0,0,-0.017,0,0);"></path></g><g><svg x="139.2166748046875" style="overflow:visible;" y="11.0999755859375" height="47" width="8.5"><path d=" M 6.61 1.70 q 0.00 -0.12 -0.10 -0.12 q -0.03 0.00 -0.10 0.03 q -1.26 0.80 -2.19 1.88 t -1.72 2.71 t -1.19 4.02 t -0.41 5.48 v 0.90 h 1.68 v -0.90 q 0.00 -1.73 0.05 -3.01 t 0.28 -2.96 t 0.62 -2.94 t 1.14 -2.52 t 1.79 -2.15 q 0.15 -0.14 0.15 -0.43 z   M 0.90 16.61 v 13.78 h 1.68 v -13.78 z" style="fill:rgb(0, 0, 0);stroke-width:1px;stroke:none;"></path><path d=" M 6.61 45.30 q 0.00 0.12 -0.10 0.12 q -0.03 0.00 -0.10 -0.03 q -1.26 -0.80 -2.19 -1.88 t -1.72 -2.71 t -1.19 -4.02 t -0.41 -5.48 v -0.90 h 1.68 v 0.90 q 0.00 1.73 0.05 3.01 t 0.28 2.96 t 0.62 2.94 t 1.14 2.52 t 1.79 2.15 q 0.15 0.14 0.15 0.43 z" style="fill:rgb(0, 0, 0);stroke-width:1px;stroke:none;"></path></svg></g><g><g><g><g style="transform:matrix(1,0,0,1,148.183349609375,28.5999755859375);"><path d="M34 388L41 368L73 389C110 412 113 414 120 414C130 414 138 404 138 391C138 384 134 361 130 347L64 107C56 76 51 49 51 30C51 6 62 -9 81 -9C107 -9 143 12 241 85L231 103L205 86C176 67 153 56 144 56C137 56 131 66 131 76C131 86 133 95 138 116L215 420C219 437 221 448 221 456C221 473 212 482 196 482C174 482 137 461 62 408ZM228 712C199 712 170 679 170 645C170 620 185 604 209 604C240 604 264 633 264 671C264 695 249 712 228 712Z" stroke="rgb(0, 0, 0)" stroke-width="8" fill="rgb(0, 0, 0)" style="transform:matrix(0.017,0,0,-0.017,0,0);"></path></g></g></g><g><g><g style="transform:matrix(1,0,0,1,147.7166748046875,54.5999755859375);"><path d="M125 390L69 107C68 99 56 61 56 31C56 6 67 -9 86 -9C121 -9 156 11 234 74L265 99L255 117L210 86C181 66 161 56 150 56C141 56 136 64 136 76C136 102 150 183 179 328L192 390L299 390L310 440C272 436 238 434 200 434C216 528 227 577 245 631L234 646C214 634 187 622 156 610L131 440C87 419 61 408 43 403L41 390Z" stroke="rgb(0, 0, 0)" stroke-width="8" fill="rgb(0, 0, 0)" style="transform:matrix(0.017,0,0,-0.017,0,0);"></path></g></g></g><line style="fill:none;stroke-width:1px;stroke:rgb(0, 0, 0);" x1="147.7166748046875" y1="36.8499755859375" x2="153.36666870117188" y2="36.8499755859375"></line></g><g><svg x="153.36663818359375" style="overflow:visible;" y="11.0999755859375" height="47" width="8.5"><path d=" M 1.19 1.70 q 0.00 -0.12 0.10 -0.12 q 0.03 0.00 0.10 0.03 q 1.26 0.80 2.19 1.88 t 1.72 2.71 t 1.19 4.02 t 0.41 5.48 v 0.90 h -1.68 v -0.90 q 0.00 -1.73 -0.05 -3.01 t -0.28 -2.96 t -0.62 -2.94 t -1.14 -2.52 t -1.79 -2.15 q -0.15 -0.14 -0.15 -0.43 z  M 6.90 16.61 v 13.78 h -1.68 v -13.78 z" style="fill:rgb(0, 0, 0);stroke-width:1px;stroke:none;"></path><path d=" M 1.19 45.30 q 0.00 0.12 0.10 0.12 q 0.03 0.00 0.10 -0.03 q 1.26 -0.80 2.19 -1.88 t 1.72 -2.71 t 1.19 -4.02 t 0.41 -5.48 v -0.90 h -1.68 v 0.90 q 0.00 1.73 -0.05 3.01 t -0.28 2.96 t -0.62 2.94 t -1.14 2.52 t -1.79 2.15 q -0.15 0.14 -0.15 0.43 z" style="fill:rgb(0, 0, 0);stroke-width:1px;stroke:none;"></path></svg></g><g><svg x="161.86663818359375" style="overflow:visible;" y="9.0999755859375" height="51" width="7.6500091552734375"><path d=" M 1.57 1.70 l 0.10 -0.10 q 1.09 0.03 2.16 0.03 q 1.02 0.00 2.14 -0.03 l 0.15 0.22 q -0.15 0.58 -0.15 3.15 v 0.85 h -1.43 v -0.85 q 0.00 -1.31 -0.07 -2.14 q -0.05 -0.60 -1.19 -0.60 h -1.65 l -0.07 -0.09 v -0.44 z  M 5.97 5.63 v 39.75 h -1.43 v -39.75 z" style="fill:rgb(0, 0, 0);stroke-width:1px;stroke:none;"></path><path d=" M 1.57 49.30 l 0.10 0.10 q 1.09 -0.03 2.16 -0.03 q 1.02 0.00 2.14 0.03 l 0.15 -0.22 q -0.15 -0.58 -0.15 -3.15 v -0.85 h -1.43 v 0.85 q 0.00 1.31 -0.07 2.14 q -0.05 0.60 -1.19 0.60 h -1.65 l -0.07 0.09 v 0.44 z" style="fill:rgb(0, 0, 0);stroke-width:1px;stroke:none;"></path></svg></g><g><g><g><g style="transform:matrix(1,0,0,1,169.51666259765625,13.9);"><path d="M16 23L16 -3C203 -3 203 0 239 0C275 0 275 -3 468 -3L468 82C353 77 307 81 122 77L304 270C401 373 431 428 431 503C431 618 353 689 226 689C154 689 105 669 56 619L39 483L68 483L81 529C97 587 133 612 200 612C286 612 341 558 341 473C341 398 299 324 186 204Z" stroke="rgb(0, 0, 0)" stroke-width="8" fill="rgb(0, 0, 0)" style="transform:matrix(0.0119,0,0,-0.0119,0,0);"></path></g></g></g></g></g></g></svg>