<svg xmlns="http://www.w3.org/2000/svg" width="300.71669006347656" height="61.399993896484375" style="width:300.71669006347656px;height:61.399993896484375px;font-family:Asana-Math, Asana;background:transparent;"><g><g><g style="transform:matrix(1,0,0,1,2,37.699981689453125);"><path d="M45 284C45 90 152 -18 343 -18C439 -18 510 5 600 67L610 103L600 110C506 53 454 35 376 35C219 35 133 131 133 309C133 447 190 653 418 653C489 653 541 639 597 603L597 519L624 519C629 576 637 619 651 665C575 694 518 706 456 706C276 706 45 578 45 284ZM938 722L926 733C874 707 838 698 766 691L762 670L810 670C834 670 844 663 844 648C844 645 844 640 841 622C830 567 757 182 742 132C729 82 723 52 723 31C723 6 734 -9 753 -9C779 -9 815 12 913 85L903 103L877 86C848 67 826 56 816 56C809 56 803 66 803 76C803 82 804 89 807 104ZM1235 204L1206 77C1202 60 1200 42 1200 26C1200 4 1209 -9 1224 -9C1247 -9 1288 17 1370 85L1363 106C1339 86 1310 59 1288 59C1279 59 1273 68 1273 82C1273 87 1273 90 1274 93L1366 472L1356 481L1323 463C1282 478 1265 482 1238 482C1210 482 1190 477 1163 464C1101 433 1068 403 1043 354C999 265 968 145 968 67C968 23 983 -11 1002 -11C1039 -11 1119 41 1235 204ZM1283 414C1261 305 1242 253 1208 201C1151 117 1090 59 1058 59C1046 59 1040 72 1040 99C1040 163 1068 280 1103 360C1127 415 1150 433 1198 433C1221 433 1239 429 1283 414ZM1438 148C1433 97 1427 62 1416 16C1454 -2 1488 -11 1523 -11C1572 -11 1618 7 1669 47C1720 87 1741 124 1741 174C1741 228 1709 257 1635 271L1592 279C1532 290 1513 307 1513 348C1513 401 1558 442 1615 442C1656 442 1694 424 1710 397L1710 342L1733 342C1737 377 1741 404 1752 455C1713 474 1685 482 1652 482C1600 482 1539 452 1491 404C1465 377 1454 352 1454 316C1454 260 1485 228 1551 215L1614 203C1658 195 1674 177 1674 138C1674 73 1628 29 1557 29C1522 29 1491 40 1463 64L1463 148ZM1826 148C1821 97 1815 62 1804 16C1842 -2 1876 -11 1911 -11C1960 -11 2006 7 2057 47C2108 87 2129 124 2129 174C2129 228 2097 257 2023 271L1980 279C1920 290 1901 307 1901 348C1901 401 1946 442 2003 442C2044 442 2082 424 2098 397L2098 342L2121 342C2125 377 2129 404 2140 455C2101 474 2073 482 2040 482C1988 482 1927 452 1879 404C1853 377 1842 352 1842 316C1842 260 1873 228 1939 215L2002 203C2046 195 2062 177 2062 138C2062 73 2016 29 1945 29C1910 29 1879 40 1851 64L1851 148ZM2217 388L2224 368L2256 389C2293 412 2296 414 2303 414C2313 414 2321 404 2321 391C2321 384 2317 361 2313 347L2247 107C2239 76 2234 49 2234 30C2234 6 2245 -9 2264 -9C2290 -9 2326 12 2424 85L2414 103L2388 86C2359 67 2336 56 2327 56C2320 56 2314 66 2314 76C2314 86 2316 95 2321 116L2398 420C2402 437 2404 448 2404 456C2404 473 2395 482 2379 482C2357 482 2320 461 2245 408ZM2411 712C2382 712 2353 679 2353 645C2353 620 2368 604 2392 604C2423 604 2447 633 2447 671C2447 695 2432 712 2411 712ZM2805 437L2789 437L2810 549C2826 635 2854 673 2900 673C2930 673 2957 658 2972 634L2982 638C2987 654 2997 685 3005 705L3010 720C2994 727 2963 733 2940 733C2929 733 2913 730 2905 726C2881 715 2799 654 2776 630C2754 608 2742 578 2731 521L2716 442C2675 422 2655 414 2630 405L2625 383L2706 383L2697 327C2667 132 2630 -54 2608 -123C2590 -182 2560 -213 2524 -213C2501 -213 2490 -206 2472 -184L2458 -188C2454 -211 2440 -259 2435 -268C2444 -273 2459 -276 2470 -276C2511 -276 2565 -245 2604 -198C2675 -114 2695 -18 2779 383L2883 383C2887 402 2894 425 2900 439L2896 446C2867 439 2868 437 2805 437ZM3044 388L3051 368L3083 389C3120 412 3123 414 3130 414C3140 414 3148 404 3148 391C3148 384 3144 361 3140 347L3074 107C3066 76 3061 49 3061 30C3061 6 3072 -9 3091 -9C3117 -9 3153 12 3251 85L3241 103L3215 86C3186 67 3163 56 3154 56C3147 56 3141 66 3141 76C3141 86 3143 95 3148 116L3225 420C3229 437 3231 448 3231 456C3231 473 3222 482 3206 482C3184 482 3147 461 3072 408ZM3238 712C3209 712 3180 679 3180 645C3180 620 3195 604 3219 604C3250 604 3274 633 3274 671C3274 695 3259 712 3238 712ZM3629 330L3652 330C3660 395 3667 432 3676 458C3652 473 3617 482 3580 482C3535 483 3462 463 3405 400C3351 352 3312 241 3312 136C3312 40 3354 -11 3434 -11C3488 -11 3536 9 3591 54L3641 95L3633 115L3618 105C3546 57 3508 40 3473 40C3417 40 3388 80 3388 159C3388 267 3423 371 3472 409C3493 425 3517 433 3548 433C3593 433 3629 414 3629 390ZM3964 204L3935 77C3931 60 3929 42 3929 26C3929 4 3938 -9 3953 -9C3976 -9 4017 17 4099 85L4092 106C4068 86 4039 59 4017 59C4008 59 4002 68 4002 82C4002 87 4002 90 4003 93L4095 472L4085 481L4052 463C4011 478 3994 482 3967 482C3939 482 3919 477 3892 464C3830 433 3797 403 3772 354C3728 265 3697 145 3697 67C3697 23 3712 -11 3731 -11C3768 -11 3848 41 3964 204ZM4012 414C3990 305 3971 253 3937 201C3880 117 3819 59 3787 59C3775 59 3769 72 3769 99C3769 163 3797 280 3832 360C3856 415 3879 433 3927 433C3950 433 3968 429 4012 414ZM4261 390L4205 107C4204 99 4192 61 4192 31C4192 6 4203 -9 4222 -9C4257 -9 4292 11 4370 74L4401 99L4391 117L4346 86C4317 66 4297 56 4286 56C4277 56 4272 64 4272 76C4272 102 4286 183 4315 328L4328 390L4435 390L4446 440C4408 436 4374 434 4336 434C4352 528 4363 577 4381 631L4370 646C4350 634 4323 622 4292 610L4267 440C4223 419 4197 408 4179 403L4177 390ZM4502 388L4509 368L4541 389C4578 412 4581 414 4588 414C4598 414 4606 404 4606 391C4606 384 4602 361 4598 347L4532 107C4524 76 4519 49 4519 30C4519 6 4530 -9 4549 -9C4575 -9 4611 12 4709 85L4699 103L4673 86C4644 67 4621 56 4612 56C4605 56 4599 66 4599 76C4599 86 4601 95 4606 116L4683 420C4687 437 4689 448 4689 456C4689 473 4680 482 4664 482C4642 482 4605 461 4530 408ZM4696 712C4667 712 4638 679 4638 645C4638 620 4653 604 4677 604C4708 604 4732 633 4732 671C4732 695 4717 712 4696 712ZM4762 152C4762 46 4807 -11 4890 -11C4945 -11 5005 15 5050 57C5112 116 5156 230 5156 331C5156 425 5106 482 5023 482C4919 482 4762 382 4762 152ZM4986 444C5047 444 5080 399 5080 315C5080 219 5049 113 5005 60C4987 39 4961 27 4930 27C4872 27 4838 72 4838 151C4838 264 4877 387 4926 427C4939 438 4962 444 4986 444ZM5212 388L5219 368L5251 389C5288 412 5291 414 5298 414C5309 414 5316 404 5316 389C5316 338 5275 145 5234 2L5241 -9C5266 -2 5289 4 5311 8C5330 134 5351 199 5397 268C5451 352 5526 414 5571 414C5582 414 5588 405 5588 390C5588 372 5585 351 5577 319L5525 107C5516 70 5512 47 5512 31C5512 6 5523 -9 5542 -9C5568 -9 5604 12 5702 85L5692 103L5666 86C5637 67 5615 56 5605 56C5598 56 5592 65 5592 76C5592 81 5593 92 5594 96L5660 372C5667 401 5671 429 5671 446C5671 469 5660 482 5640 482C5598 482 5529 444 5470 389C5432 354 5404 320 5352 247L5390 408C5394 426 5396 438 5396 449C5396 470 5388 482 5373 482C5352 482 5313 460 5240 408ZM6320 111L6296 94C6243 56 6195 36 6159 36C6112 36 6083 73 6083 133C6083 158 6086 185 6091 214C6108 218 6217 248 6242 259C6327 296 6366 342 6366 404C6366 451 6332 482 6282 482C6214 496 6104 423 6067 349C6037 299 6007 180 6007 113C6007 35 6051 -11 6123 -11C6180 -11 6236 17 6328 92ZM6105 274C6122 343 6142 386 6171 412C6189 428 6220 440 6244 440C6273 440 6292 420 6292 388C6292 344 6257 297 6205 272C6177 258 6141 247 6096 237ZM6748 365C6751 403 6756 435 6764 476C6753 481 6749 482 6744 482C6713 482 6682 458 6646 407C6607 351 6568 291 6552 256L6584 408C6588 425 6590 438 6590 450C6590 470 6582 482 6567 482C6546 482 6508 461 6434 408L6406 388L6413 368L6445 389C6473 407 6484 412 6493 412C6503 412 6510 403 6510 390C6510 332 6467 126 6427 -2L6437 -9C6452 -4 6468 -1 6491 4L6504 6L6530 126C6548 209 6571 262 6615 319C6649 363 6676 384 6698 384C6713 384 6723 379 6734 365ZM7136 365C7139 403 7144 435 7152 476C7141 481 7137 482 7132 482C7101 482 7070 458 7034 407C6995 351 6956 291 6940 256L6972 408C6976 425 6978 438 6978 450C6978 470 6970 482 6955 482C6934 482 6896 461 6822 408L6794 388L6801 368L6833 389C6861 407 6872 412 6881 412C6891 412 6898 403 6898 390C6898 332 6855 126 6815 -2L6825 -9C6840 -4 6856 -1 6879 4L6892 6L6918 126C6936 209 6959 262 7003 319C7037 363 7064 384 7086 384C7101 384 7111 379 7122 365ZM7173 152C7173 46 7218 -11 7301 -11C7356 -11 7416 15 7461 57C7523 116 7567 230 7567 331C7567 425 7517 482 7434 482C7330 482 7173 382 7173 152ZM7397 444C7458 444 7491 399 7491 315C7491 219 7460 113 7416 60C7398 39 7372 27 7341 27C7283 27 7249 72 7249 151C7249 264 7288 387 7337 427C7350 438 7373 444 7397 444ZM7967 365C7970 403 7975 435 7983 476C7972 481 7968 482 7963 482C7932 482 7901 458 7865 407C7826 351 7787 291 7771 256L7803 408C7807 425 7809 438 7809 450C7809 470 7801 482 7786 482C7765 482 7727 461 7653 408L7625 388L7632 368L7664 389C7692 407 7703 412 7712 412C7722 412 7729 403 7729 390C7729 332 7686 126 7646 -2L7656 -9C7671 -4 7687 -1 7710 4L7723 6L7749 126C7767 209 7790 262 7834 319C7868 363 7895 384 7917 384C7932 384 7942 379 7953 365Z" stroke="rgb(0, 0, 0)" stroke-width="8" fill="rgb(0, 0, 0)" style="transform:matrix(0.017,0,0,-0.017,0,0);"></path></g><g style="transform:matrix(1,0,0,1,142.0833740234375,37.699981689453125);"><path d="M146 266C146 526 243 632 301 700L282 726C225 675 60 542 60 266C60 159 85 58 133 -32C168 -99 200 -138 282 -215L301 -194C255 -137 146 -15 146 266Z" stroke="rgb(0, 0, 0)" stroke-width="8" fill="rgb(0, 0, 0)" style="transform:matrix(0.017,0,0,-0.017,0,0);"></path></g><g style="transform:matrix(1,0,0,1,147.7333984375,37.699981689453125);"><path d="M125 390L69 107C68 99 56 61 56 31C56 6 67 -9 86 -9C121 -9 156 11 234 74L265 99L255 117L210 86C181 66 161 56 150 56C141 56 136 64 136 76C136 102 150 183 179 328L192 390L299 390L310 440C272 436 238 434 200 434C216 528 227 577 245 631L234 646C214 634 187 622 156 610L131 440C87 419 61 408 43 403L41 390Z" stroke="rgb(0, 0, 0)" stroke-width="8" fill="rgb(0, 0, 0)" style="transform:matrix(0.017,0,0,-0.017,0,0);"></path></g><g style="transform:matrix(1,0,0,1,153.38336181640625,37.699981689453125);"><path d="M51 726L32 700C87 636 187 526 187 266C187 -10 83 -131 32 -194L51 -215C104 -165 273 -23 273 265C273 542 108 675 51 726Z" stroke="rgb(0, 0, 0)" stroke-width="8" fill="rgb(0, 0, 0)" style="transform:matrix(0.017,0,0,-0.017,0,0);"></path></g><g style="transform:matrix(1,0,0,1,164.13336181640625,37.699981689453125);"><path d="M604 347L604 406L65 406L65 347ZM604 134L604 193L65 193L65 134Z" stroke="rgb(0, 0, 0)" stroke-width="8" fill="rgb(0, 0, 0)" style="transform:matrix(0.017,0,0,-0.017,0,0);"></path></g><g style="transform:matrix(1,0,0,1,180.5833740234375,37.699981689453125);"><path d="M418 -3L418 27L366 30C311 33 301 44 301 96L301 700L60 598L67 548L217 614L217 96C217 44 206 33 152 30L96 27L96 -3C250 0 250 0 261 0C292 0 402 -3 418 -3Z" stroke="rgb(0, 0, 0)" stroke-width="8" fill="rgb(0, 0, 0)" style="transform:matrix(0.017,0,0,-0.017,0,0);"></path></g><g style="transform:matrix(1,0,0,1,192.4666748046875,37.699981689453125);"><path d="M555 243L555 299L51 299L51 243Z" stroke="rgb(0, 0, 0)" stroke-width="8" fill="rgb(0, 0, 0)" style="transform:matrix(0.017,0,0,-0.017,0,0);"></path></g><g style="transform:matrix(1,0,0,1,206.1500244140625,37.699981689453125);"><path d="M730 103L704 86C675 67 653 56 643 56C636 56 630 65 630 76C630 86 632 95 637 116L712 413C716 430 719 446 719 454C719 471 709 482 693 482C664 482 626 464 565 421C502 376 467 341 418 272L448 409C452 429 455 444 455 451C455 470 445 482 429 482C399 482 353 460 298 418C254 384 234 363 169 275L202 408C206 424 208 439 208 451C208 470 199 482 185 482C164 482 126 461 52 408L24 388L31 368C68 391 103 414 110 414C121 414 128 404 128 389C128 338 87 145 46 2L49 -9L117 6L139 108C163 219 190 278 245 338C287 384 332 414 360 414C367 414 371 406 371 393C371 358 349 244 308 69L292 2L297 -9L366 6L387 113C403 194 437 269 481 318C536 379 586 414 618 414C626 414 631 405 631 389C631 365 628 351 606 264C566 105 550 84 550 31C550 6 561 -9 580 -9C606 -9 642 12 740 85ZM1048 204L1019 77C1015 60 1013 42 1013 26C1013 4 1022 -9 1037 -9C1060 -9 1101 17 1183 85L1176 106C1152 86 1123 59 1101 59C1092 59 1086 68 1086 82C1086 87 1086 90 1087 93L1179 472L1169 481L1136 463C1095 478 1078 482 1051 482C1023 482 1003 477 976 464C914 433 881 403 856 354C812 265 781 145 781 67C781 23 796 -11 815 -11C852 -11 932 41 1048 204ZM1096 414C1074 305 1055 253 1021 201C964 117 903 59 871 59C859 59 853 72 853 99C853 163 881 280 916 360C940 415 963 433 1011 433C1034 433 1052 429 1096 414ZM1229 1C1244 -7 1260 -11 1272 -11C1305 -11 1344 18 1375 65L1451 182L1462 113C1475 28 1498 -11 1534 -11C1556 -11 1588 6 1620 35L1669 79L1660 98C1624 68 1599 53 1583 53C1568 53 1555 63 1545 83C1536 102 1525 139 1520 168L1502 269L1537 318C1584 383 1611 406 1642 406C1658 406 1670 398 1675 383L1689 387L1704 472C1692 479 1683 482 1674 482C1634 482 1594 446 1532 354L1495 299L1489 347C1477 446 1450 482 1391 482C1365 482 1343 474 1334 461L1276 378L1293 368C1323 402 1343 416 1362 416C1395 416 1417 375 1434 277L1445 215L1405 153C1362 86 1328 54 1300 54C1285 54 1274 58 1272 63L1261 91L1241 88C1241 53 1233 27 1229 1Z" stroke="rgb(0, 0, 0)" stroke-width="8" fill="rgb(0, 0, 0)" style="transform:matrix(0.017,0,0,-0.017,0,0);"></path></g><g><g><g><g style="transform:matrix(1,0,0,1,235.38336181640625,43.083319091796874);"><path d="M34 388L41 368L73 389C110 412 113 414 120 414C130 414 138 404 138 391C138 384 134 361 130 347L64 107C56 76 51 49 51 30C51 6 62 -9 81 -9C107 -9 143 12 241 85L231 103L205 86C176 67 153 56 144 56C137 56 131 66 131 76C131 86 133 95 138 116L215 420C219 437 221 448 221 456C221 473 212 482 196 482C174 482 137 461 62 408ZM228 712C199 712 170 679 170 645C170 620 185 604 209 604C240 604 264 633 264 671C264 695 249 712 228 712Z" stroke="rgb(0, 0, 0)" stroke-width="8" fill="rgb(0, 0, 0)" style="transform:matrix(0.0119,0,0,-0.0119,0,0);"></path></g></g></g></g><g><svg x="238.683349609375" style="overflow:visible;" y="3.699981689453125" height="54" width="8.5"><path d=" M 6.61 1.70 q 0.00 -0.12 -0.10 -0.12 q -0.03 0.00 -0.10 0.03 q -1.26 0.80 -2.19 1.88 t -1.72 2.71 t -1.19 4.02 t -0.41 5.48 v 0.90 h 1.68 v -0.90 q 0.00 -1.73 0.05 -3.01 t 0.28 -2.96 t 0.62 -2.94 t 1.14 -2.52 t 1.79 -2.15 q 0.15 -0.14 0.15 -0.43 z   M 0.90 16.61 v 20.78 h 1.68 v -20.78 z" style="fill:rgb(0, 0, 0);stroke-width:1px;stroke:none;"></path><path d=" M 6.61 52.30 q 0.00 0.12 -0.10 0.12 q -0.03 0.00 -0.10 -0.03 q -1.26 -0.80 -2.19 -1.88 t -1.72 -2.71 t -1.19 -4.02 t -0.41 -5.48 v -0.90 h 1.68 v 0.90 q 0.00 1.73 0.05 3.01 t 0.28 2.96 t 0.62 2.94 t 1.14 2.52 t 1.79 2.15 q 0.15 0.14 0.15 0.43 z" style="fill:rgb(0, 0, 0);stroke-width:1px;stroke:none;"></path></svg></g><g><svg x="245.4833984375" style="overflow:visible;" y="5.699981689453125" height="51" width="7.649993896484375"><path d=" M 5.98 1.70 l -0.10 -0.10 q -1.09 0.03 -2.16 0.03 q -1.02 0.00 -2.14 -0.03 l -0.15 0.22 q 0.15 0.58 0.15 3.15 v 0.85 h 1.43 v -0.85 q 0.00 -1.31 0.07 -2.14 q 0.05 -0.60 1.19 -0.60 h 1.65 l 0.07 -0.09 v -0.44 z  M 1.58 5.63 v 39.75 h 1.43 v -39.75 z " style="fill:rgb(0, 0, 0);stroke-width:1px;stroke:none;"></path><path d=" M 5.98 49.30 l -0.10 0.10 q -1.09 -0.03 -2.16 -0.03 q -1.02 0.00 -2.14 0.03 l -0.15 -0.22 q 0.15 -0.58 0.15 -3.15 v -0.85 h 1.43 v 0.85 q 0.00 1.31 0.07 2.14 q 0.05 0.60 1.19 0.60 h 1.65 l 0.07 0.09 v 0.44 z" style="fill:rgb(0, 0, 0);stroke-width:1px;stroke:none;"></path></svg></g><g style="transform:matrix(1,0,0,1,253.13336181640625,37.699981689453125);"><path d="M176 -11C232 -11 347 62 390 125C431 186 465 296 465 371C465 438 442 482 406 482C364 482 311 456 259 409C218 374 198 348 162 289L186 408C189 425 191 440 191 452C191 471 183 482 169 482C148 482 110 461 36 408L8 388L15 368L47 389C75 407 86 412 95 412C105 412 112 403 112 389C112 381 110 361 108 351L50 8C40 -52 21 -143 1 -233L-7 -270L0 -276C21 -269 41 -264 73 -259L115 3C136 -4 158 -11 176 -11ZM143 165C165 293 272 424 355 424C381 424 393 402 393 356C393 275 353 156 300 80C280 51 248 36 207 36C176 36 151 43 125 59Z" stroke="rgb(0, 0, 0)" stroke-width="8" fill="rgb(0, 0, 0)" style="transform:matrix(0.017,0,0,-0.017,0,0);"></path></g><g><svg x="261.61669921875" style="overflow:visible;" y="7.699981689453125" height="47" width="8.5"><path d=" M 6.61 1.70 q 0.00 -0.12 -0.10 -0.12 q -0.03 0.00 -0.10 0.03 q -1.26 0.80 -2.19 1.88 t -1.72 2.71 t -1.19 4.02 t -0.41 5.48 v 0.90 h 1.68 v -0.90 q 0.00 -1.73 0.05 -3.01 t 0.28 -2.96 t 0.62 -2.94 t 1.14 -2.52 t 1.79 -2.15 q 0.15 -0.14 0.15 -0.43 z   M 0.90 16.61 v 13.78 h 1.68 v -13.78 z" style="fill:rgb(0, 0, 0);stroke-width:1px;stroke:none;"></path><path d=" M 6.61 45.30 q 0.00 0.12 -0.10 0.12 q -0.03 0.00 -0.10 -0.03 q -1.26 -0.80 -2.19 -1.88 t -1.72 -2.71 t -1.19 -4.02 t -0.41 -5.48 v -0.90 h 1.68 v 0.90 q 0.00 1.73 0.05 3.01 t 0.28 2.96 t 0.62 2.94 t 1.14 2.52 t 1.79 2.15 q 0.15 0.14 0.15 0.43 z" style="fill:rgb(0, 0, 0);stroke-width:1px;stroke:none;"></path></svg></g><g><g><g><g style="transform:matrix(1,0,0,1,270.5833740234375,25.199981689453125);"><path d="M34 388L41 368L73 389C110 412 113 414 120 414C130 414 138 404 138 391C138 384 134 361 130 347L64 107C56 76 51 49 51 30C51 6 62 -9 81 -9C107 -9 143 12 241 85L231 103L205 86C176 67 153 56 144 56C137 56 131 66 131 76C131 86 133 95 138 116L215 420C219 437 221 448 221 456C221 473 212 482 196 482C174 482 137 461 62 408ZM228 712C199 712 170 679 170 645C170 620 185 604 209 604C240 604 264 633 264 671C264 695 249 712 228 712Z" stroke="rgb(0, 0, 0)" stroke-width="8" fill="rgb(0, 0, 0)" style="transform:matrix(0.017,0,0,-0.017,0,0);"></path></g></g></g><g><g><g style="transform:matrix(1,0,0,1,270.11669921875,51.199981689453125);"><path d="M125 390L69 107C68 99 56 61 56 31C56 6 67 -9 86 -9C121 -9 156 11 234 74L265 99L255 117L210 86C181 66 161 56 150 56C141 56 136 64 136 76C136 102 150 183 179 328L192 390L299 390L310 440C272 436 238 434 200 434C216 528 227 577 245 631L234 646C214 634 187 622 156 610L131 440C87 419 61 408 43 403L41 390Z" stroke="rgb(0, 0, 0)" stroke-width="8" fill="rgb(0, 0, 0)" style="transform:matrix(0.017,0,0,-0.017,0,0);"></path></g></g></g><line style="fill:none;stroke-width:1px;stroke:rgb(0, 0, 0);" x1="270.11669921875" y1="33.449981689453125" x2="275.7666931152344" y2="33.449981689453125"></line></g><g><svg x="275.7667236328125" style="overflow:visible;" y="7.699981689453125" height="47" width="8.5"><path d=" M 1.19 1.70 q 0.00 -0.12 0.10 -0.12 q 0.03 0.00 0.10 0.03 q 1.26 0.80 2.19 1.88 t 1.72 2.71 t 1.19 4.02 t 0.41 5.48 v 0.90 h -1.68 v -0.90 q 0.00 -1.73 -0.05 -3.01 t -0.28 -2.96 t -0.62 -2.94 t -1.14 -2.52 t -1.79 -2.15 q -0.15 -0.14 -0.15 -0.43 z  M 6.90 16.61 v 13.78 h -1.68 v -13.78 z" style="fill:rgb(0, 0, 0);stroke-width:1px;stroke:none;"></path><path d=" M 1.19 45.30 q 0.00 0.12 0.10 0.12 q 0.03 0.00 0.10 -0.03 q 1.26 -0.80 2.19 -1.88 t 1.72 -2.71 t 1.19 -4.02 t 0.41 -5.48 v -0.90 h -1.68 v 0.90 q 0.00 1.73 -0.05 3.01 t -0.28 2.96 t -0.62 2.94 t -1.14 2.52 t -1.79 2.15 q -0.15 0.14 -0.15 0.43 z" style="fill:rgb(0, 0, 0);stroke-width:1px;stroke:none;"></path></svg></g><g><svg x="284.2667236328125" style="overflow:visible;" y="5.699981689453125" height="51" width="7.6500091552734375"><path d=" M 1.57 1.70 l 0.10 -0.10 q 1.09 0.03 2.16 0.03 q 1.02 0.00 2.14 -0.03 l 0.15 0.22 q -0.15 0.58 -0.15 3.15 v 0.85 h -1.43 v -0.85 q 0.00 -1.31 -0.07 -2.14 q -0.05 -0.60 -1.19 -0.60 h -1.65 l -0.07 -0.09 v -0.44 z  M 5.97 5.63 v 39.75 h -1.43 v -39.75 z" style="fill:rgb(0, 0, 0);stroke-width:1px;stroke:none;"></path><path d=" M 1.57 49.30 l 0.10 0.10 q 1.09 -0.03 2.16 -0.03 q 1.02 0.00 2.14 0.03 l 0.15 -0.22 q -0.15 -0.58 -0.15 -3.15 v -0.85 h -1.43 v 0.85 q 0.00 1.31 -0.07 2.14 q -0.05 0.60 -1.19 0.60 h -1.65 l -0.07 0.09 v 0.44 z" style="fill:rgb(0, 0, 0);stroke-width:1px;stroke:none;"></path></svg></g><g><svg x="290.2166748046875" style="overflow:visible;" y="3.699981689453125" height="54" width="8.5"><path d=" M 1.19 1.70 q 0.00 -0.12 0.10 -0.12 q 0.03 0.00 0.10 0.03 q 1.26 0.80 2.19 1.88 t 1.72 2.71 t 1.19 4.02 t 0.41 5.48 v 0.90 h -1.68 v -0.90 q 0.00 -1.73 -0.05 -3.01 t -0.28 -2.96 t -0.62 -2.94 t -1.14 -2.52 t -1.79 -2.15 q -0.15 -0.14 -0.15 -0.43 z  M 6.90 16.61 v 20.78 h -1.68 v -20.78 z" style="fill:rgb(0, 0, 0);stroke-width:1px;stroke:none;"></path><path d=" M 1.19 52.30 q 0.00 0.12 0.10 0.12 q 0.03 0.00 0.10 -0.03 q 1.26 -0.80 2.19 -1.88 t 1.72 -2.71 t 1.19 -4.02 t 0.41 -5.48 v -0.90 h -1.68 v 0.90 q 0.00 1.73 -0.05 3.01 t -0.28 2.96 t -0.62 2.94 t -1.14 2.52 t -1.79 2.15 q -0.15 0.14 -0.15 0.43 z" style="fill:rgb(0, 0, 0);stroke-width:1px;stroke:none;"></path></svg></g></g></g></svg>